{
  "source": "C:\\Users\\Peter\\Desktop\\stuff\\MIUN\\quantitative_research\\video_compression\\videos\\BVI-HD\\SmokeGuns_1920x1080_60fps.mp4",
  "output": "C:\\Users\\Peter\\Desktop\\stuff\\MIUN\\quantitative_research\\video_compression\\compressed_videos\\BVI-HD\\h264\\12\\SmokeGuns_1920x1080_60fps_h264.mp4",
  "codec": "h264",
  "ok": "Input #0, mov,mp4,m4a,3gp,3g2,mj2, from 'C:\\Users\\Peter\\Desktop\\stuff\\MIUN\\quantitative_research\\video_compression\\videos\\BVI-HD\\SmokeGuns_1920x1080_60fps.mp4':\n  Metadata:\n    major_brand     : isom\n    minor_version   : 512\n    compatible_brands: isomiso2avc1mp41\n    encoder         : Lavf54.28.101\n  Duration: 00:00:05.00, start: 0.000000, bitrate: 384353 kb/s\n  Stream #0:0[0x1](und): Video: h264 (High 4:4:4 Predictive) (avc1 / 0x31637661), yuv420p(progressive), 1920x1080, 384348 kb/s, 60 fps, 60 tbr, 60 tbn (default)\n    Metadata:\n      handler_name    : VideoHandler\n      vendor_id       : [0][0][0][0]\n[out#0/mp4 @ 000001c107a99980] Codec AVOption b:a (set bitrate (in bits/s)) has not been used for any stream. The most likely reason is either wrong type (e.g. a video option with no video streams) or that it is a private option of some decoder which was not actually used for any stream.\nStream mapping:\n  Stream #0:0 -> #0:0 (h264 (native) -> h264 (libx264))\nPress [q] to stop, [?] for help\n[libx264 @ 000001c107aaaac0] using cpu capabilities: MMX2 SSE2Fast SSSE3 SSE4.2 AVX FMA3 BMI2 AVX2\n[libx264 @ 000001c107aaaac0] profile High, level 5.0, 4:2:0, 8-bit\n[libx264 @ 000001c107aaaac0] 264 - core 165 r3222 b35605a - H.264/MPEG-4 AVC codec - Copyleft 2003-2025 - http://www.videolan.org/x264.html - options: cabac=1 ref=5 deblock=1:0:0 analyse=0x3:0x113 me=hex subme=8 psy=1 psy_rd=1.00:0.00 mixed_ref=1 me_range=16 chroma_me=1 trellis=2 8x8dct=1 cqm=0 deadzone=21,11 fast_pskip=1 chroma_qp_offset=-2 threads=18 lookahead_threads=3 sliced_threads=0 nr=0 decimate=1 interlaced=0 bluray_compat=0 constrained_intra=0 bframes=3 b_pyramid=2 b_adapt=1 b_bias=0 direct=3 weightb=1 open_gop=0 weightp=2 keyint=250 keyint_min=25 scenecut=40 intra_refresh=0 rc_lookahead=50 rc=cbr mbtree=1 bitrate=12000 ratetol=1.0 qcomp=0.60 qpmin=0 qpmax=69 qpstep=4 vbv_maxrate=12000 vbv_bufsize=12000 nal_hrd=none filler=0 ip_ratio=1.40 aq=1:1.00\nOutput #0, mp4, to 'C:\\Users\\Peter\\Desktop\\stuff\\MIUN\\quantitative_research\\video_compression\\compressed_videos\\BVI-HD\\h264\\12\\SmokeGuns_1920x1080_60fps_h264.mp4':\n  Metadata:\n    major_brand     : isom\n    minor_version   : 512\n    compatible_brands: isomiso2avc1mp41\n    encoder         : Lavf62.3.100\n  Stream #0:0(und): Video: h264 (avc1 / 0x31637661), yuv420p(tv, progressive), 1920x1080, q=2-31, 12000 kb/s, 60 fps, 15360 tbn (default)\n    Metadata:\n      encoder         : Lavc62.11.100 libx264\n      handler_name    : VideoHandler\n      vendor_id       : [0][0][0][0]\n    Side data:\n      cpb: bitrate max/min/avg: 12000000/0/12000000 buffer size: 12000000 vbv_delay: N/A\nframe=    0 fps=0.0 q=0.0 size=       0KiB time=N/A bitrate=N/A speed=N/A elapsed=0:00:00.51    \nframe=    0 fps=0.0 q=0.0 size=       0KiB time=N/A bitrate=N/A speed=N/A elapsed=0:00:01.05    \nframe=   20 fps= 12 q=28.0 size=     256KiB time=00:00:00.23 bitrate=8989.5kbits/s speed=0.144x elapsed=0:00:01.61    \nframe=   29 fps= 13 q=27.0 size=     512KiB time=00:00:00.45 bitrate=9321.5kbits/s speed=0.206x elapsed=0:00:02.18    \nframe=   51 fps= 19 q=28.0 size=     768KiB time=00:00:00.78 bitrate=8032.1kbits/s speed=0.288x elapsed=0:00:02.71    \nframe=   65 fps= 20 q=28.0 size=    1280KiB time=00:00:01.05 bitrate=9986.8kbits/s speed=0.322x elapsed=0:00:03.25    \nframe=   84 fps= 22 q=28.0 size=    1792KiB time=00:00:01.30 bitrate=11292.7kbits/s speed=0.344x elapsed=0:00:03.77    \nframe=   97 fps= 22 q=28.0 size=    2048KiB time=00:00:01.58 bitrate=10596.4kbits/s speed=0.364x elapsed=0:00:04.35    \nframe=  117 fps= 24 q=28.0 size=    2560KiB time=00:00:01.91 bitrate=10941.9kbits/s speed=0.393x elapsed=0:00:04.87    \nframe=  133 fps= 25 q=28.0 size=    3072KiB time=00:00:02.18 bitrate=11526.5kbits/s speed=0.405x elapsed=0:00:05.38    \nframe=  153 fps= 26 q=28.0 size=    3584KiB time=00:00:02.51 bitrate=11666.4kbits/s speed=0.423x elapsed=0:00:05.94    \nframe=  169 fps= 26 q=28.0 size=    3840KiB time=00:00:02.78 bitrate=11302.2kbits/s speed=0.429x elapsed=0:00:06.49    \nframe=  189 fps= 27 q=28.0 size=    4352KiB time=00:00:03.08 bitrate=11562.8kbits/s speed=0.438x elapsed=0:00:07.03    \nframe=  206 fps= 27 q=28.0 size=    4864KiB time=00:00:03.40 bitrate=11719.5kbits/s speed=0.448x elapsed=0:00:07.58    \nframe=  225 fps= 28 q=28.0 size=    5120KiB time=00:00:03.71 bitrate=11285.2kbits/s speed=0.459x elapsed=0:00:08.10    \nframe=  249 fps= 29 q=28.0 size=    5632KiB time=00:00:04.08 bitrate=11299.0kbits/s speed=0.473x elapsed=0:00:08.62    \nframe=  268 fps= 29 q=27.0 size=    6144KiB time=00:00:04.43 bitrate=11353.1kbits/s speed=0.484x elapsed=0:00:09.15    \nframe=  291 fps= 30 q=-1.0 size=    6656KiB time=00:00:04.81 bitrate=11320.3kbits/s speed=0.498x elapsed=0:00:09.67    \n[mp4 @ 000001c107a99a80] Starting second pass: moving the moov atom to the beginning of the file\n[out#0/mp4 @ 000001c107a99980] video:7047KiB audio:0KiB subtitle:0KiB other streams:0KiB global headers:0KiB muxing overhead: 0.063071%\nframe=  300 fps= 30 q=-1.0 Lsize=    7051KiB time=00:00:04.96 bitrate=11629.9kbits/s speed=0.501x elapsed=0:00:09.91    \n[libx264 @ 000001c107aaaac0] frame I:2     Avg QP:22.28  size:132520\n[libx264 @ 000001c107aaaac0] frame P:76    Avg QP:24.43  size: 55523\n[libx264 @ 000001c107aaaac0] frame B:222   Avg QP:25.63  size: 12298\n[libx264 @ 000001c107aaaac0] consecutive B-frames:  1.3%  0.0%  0.0% 98.7%\n[libx264 @ 000001c107aaaac0] mb I  I16..4:  1.8% 96.9%  1.3%\n[libx264 @ 000001c107aaaac0] mb P  I16..4:  1.9% 18.9%  0.2%  P16..4: 54.1% 13.3%  4.7%  0.0%  0.0%    skip: 6.8%\n[libx264 @ 000001c107aaaac0] mb B  I16..4:  0.2%  0.9%  0.0%  B16..8: 35.1%  3.4%  0.5%  direct: 4.7%  skip:55.1%  L0:42.2% L1:48.7% BI: 9.1%\n[libx264 @ 000001c107aaaac0] 8x8 transform intra:89.9% inter:88.7%\n[libx264 @ 000001c107aaaac0] direct mvs  spatial:95.5% temporal:4.5%\n[libx264 @ 000001c107aaaac0] coded y,uvDC,uvAC intra: 76.9% 82.8% 21.8% inter: 16.5% 29.9% 2.3%\n[libx264 @ 000001c107aaaac0] i16 v,h,dc,p: 14% 14%  5% 67%\n[libx264 @ 000001c107aaaac0] i8 v,h,dc,ddl,ddr,vr,hd,vl,hu: 14% 11% 22%  7%  8%  9%  8% 10% 11%\n[libx264 @ 000001c107aaaac0] i4 v,h,dc,ddl,ddr,vr,hd,vl,hu: 11%  7%  2%  9% 18% 18% 14% 10% 10%\n[libx264 @ 000001c107aaaac0] i8c dc,h,v,p: 45% 23% 21% 11%\n[libx264 @ 000001c107aaaac0] Weighted P-Frames: Y:0.0% UV:0.0%\n[libx264 @ 000001c107aaaac0] ref P L0: 42.2% 18.9% 23.1%  6.8%  8.9%\n[libx264 @ 000001c107aaaac0] ref B L0: 73.2% 17.7%  7.0%  2.1%\n[libx264 @ 000001c107aaaac0] ref B L1: 94.0%  6.0%\n[libx264 @ 000001c107aaaac0] kb/s:11543.89\n",
  "seconds": 10.20445966720581,
  "probe_out": {}
}